<?xml version="1.0" encoding="UTF-8" standalone="no"?>
<svg
   xmlns:dc="http://purl.org/dc/elements/1.1/"
   xmlns:cc="http://creativecommons.org/ns#"
   xmlns:rdf="http://www.w3.org/1999/02/22-rdf-syntax-ns#"
   xmlns:svg="http://www.w3.org/2000/svg"
   xmlns="http://www.w3.org/2000/svg"
   id="svg4544"
   version="1.1"
   viewBox="0 0 52.916667 9.575367"
   height="36.190365"
   width="200">
  <defs
     id="defs4538" />
  <metadata
     id="metadata4541">
    <rdf:RDF>
      <cc:Work
         rdf:about="">
        <dc:format>image/svg+xml</dc:format>
        <dc:type
           rdf:resource="http://purl.org/dc/dcmitype/StillImage" />
        <dc:title></dc:title>
      </cc:Work>
    </rdf:RDF>
  </metadata>
  <g
     transform="translate(-47.519543,-84.0214)"
     id="layer1">
    <text
       id="text3898"
       y="86.34626"
       x="61.835484"
       style="font-style:normal;font-variant:normal;font-weight:normal;font-stretch:normal;font-size:10.58329964px;line-height:1.25;font-family:Carlito;-inkscape-font-specification:Carlito;letter-spacing:0px;word-spacing:0px;fill:#ffffff;fill-opacity:1;stroke:none;stroke-width:0.26458299"
       xml:space="preserve"><tspan
         style="font-style:normal;font-variant:normal;font-weight:normal;font-stretch:normal;font-family:Carlito;-inkscape-font-specification:Carlito;fill:#ffffff;stroke-width:0.26458299"
         y="95.606644"
         x="61.835484"
         id="tspan3896" /></text>
    <text
       id="text3902"
       y="90.204956"
       x="63.262035"
       style="font-style:normal;font-variant:normal;font-weight:normal;font-stretch:normal;font-size:10.58329964px;line-height:1.25;font-family:Carlito;-inkscape-font-specification:Carlito;letter-spacing:0px;word-spacing:0px;fill:#ffffff;fill-opacity:0;stroke:#ffffff;stroke-width:0.26458299"
       xml:space="preserve"><tspan
         style="font-style:normal;font-variant:normal;font-weight:normal;font-stretch:normal;font-family:Carlito;-inkscape-font-specification:Carlito;fill:#ffffff;fill-opacity:0;stroke:#ffffff;stroke-width:0.26458299"
         y="99.46534"
         x="63.262035"
         id="tspan3900" /></text>
    <text
       id="text4715"
       y="89.994492"
       x="64.127327"
       style="font-style:normal;font-variant:normal;font-weight:normal;font-stretch:normal;font-size:10.58329964px;line-height:1.25;font-family:Carlito;-inkscape-font-specification:Carlito;letter-spacing:0px;word-spacing:0px;fill:#ffffff;fill-opacity:1;stroke:none;stroke-width:0.26458299"
       xml:space="preserve"><tspan
         style="font-style:normal;font-variant:normal;font-weight:normal;font-stretch:normal;font-family:Carlito;-inkscape-font-specification:Carlito;fill:#ffffff;stroke-width:0.26458299"
         y="99.254875"
         x="64.127327"
         id="tspan4713" /></text>
    <rect
       y="83.065468"
       x="42.427826"
       height="12.095238"
       width="43.278275"
       id="rect5327"
       style="opacity:1;fill:none;fill-opacity:1;stroke:#7d2d69;stroke-width:0.26499999;stroke-miterlimit:4;stroke-dasharray:none;stroke-opacity:0.00438597" />
    <g
       transform="translate(8.2989718,1.2430063e-6)"
       id="g1400">
      <g
         id="g3784">
        <path
           style="fill:#3255a4;fill-opacity:1;stroke:none;stroke-width:0.86500001;stroke-miterlimit:4;stroke-dasharray:none;stroke-dashoffset:0;stroke-opacity:1"
           id="path846"
           d="m 111.95,104.47 -6.83,-3.44 -6.828,-3.444 6.398,-4.195 6.39,-4.196 0.44,7.636 z"
           transform="matrix(-0.14969411,-0.00880611,0.00876002,-0.15048167,89.602886,104.60815)" />
        <path
           id="path4727"
           style="font-style:normal;font-variant:normal;font-weight:bold;font-stretch:normal;font-size:10.58329964px;line-height:1.25;font-family:Carlito;-inkscape-font-specification:Carlito;letter-spacing:0px;word-spacing:0px;fill:#3255a4;fill-opacity:1;stroke:none;stroke-width:0.26458299"
           d="m 82.838266,89.083689 c 0,0.50299 -0.07924,0.96635 -0.237711,1.3901 -0.158475,0.4203 -0.384129,0.78203 -0.676962,1.0852 -0.289388,0.30317 -0.639065,0.53916 -1.049031,0.70797 -0.409967,0.16881 -0.864719,0.25321 -1.364258,0.25321 h -2.501139 v -6.862627 h 2.501139 c 0.499539,0 0.954291,0.0844 1.364258,0.253214 0.409966,0.16881 0.759643,0.404799 1.049031,0.707967 0.292833,0.303169 0.518487,0.664904 0.676962,1.085205 0.158474,0.420302 0.237711,0.880222 0.237711,1.379761 z m -1.37976,0 c 0,-0.36518 -0.04479,-0.692464 -0.134359,-0.981852 -0.08957,-0.289388 -0.218764,-0.535712 -0.387573,-0.738973 -0.165365,-0.203261 -0.368625,-0.35829 -0.609782,-0.465088 -0.241157,-0.110243 -0.513319,-0.165365 -0.816488,-0.165365 h -1.136881 v 4.707728 h 1.136881 c 0.303169,0 0.575331,-0.0534 0.816488,-0.1602 0.241157,-0.1068 0.444417,-0.26183 0.609782,-0.46509 0.168809,-0.20326 0.298,-0.44958 0.387573,-0.73897 0.08957,-0.29283 0.134359,-0.62356 0.134359,-0.99219 z m -5.420858,-3.426147 v 1.080037 h -2.821533 v 1.813843 h 1.295012 l 0.0083,1.038697 h -1.30328 v 1.85002 h 2.826701 l -0.0052,1.08003 h -4.185822 v -6.862627 z m -8.774658,4.221967 v 2.64066 h -1.364257 v -6.862627 h 2.067057 c 0.458197,0 0.850938,0.04995 1.178222,0.149861 0.327285,0.09646 0.59428,0.232544 0.800985,0.408244 0.210151,0.1757 0.363457,0.385851 0.45992,0.630452 0.09646,0.244602 0.144694,0.51332 0.144694,0.806153 0,0.223931 -0.03101,0.437527 -0.09302,0.640788 -0.06201,0.199815 -0.153308,0.384128 -0.273885,0.552937 -0.117133,0.165365 -0.261827,0.313502 -0.434082,0.444422 -0.172255,0.12747 -0.370348,0.23082 -0.594279,0.31005 0.08613,0.0483 0.167087,0.10683 0.242879,0.1757 0.07579,0.0655 0.146416,0.14643 0.211873,0.24288 l 1.53479,2.50114 h -1.224731 c -0.217041,0 -0.384129,-0.0913 -0.501262,-0.27388 l -1.250569,-2.13941 c -0.05168,-0.0827 -0.110247,-0.14125 -0.1757,-0.1757 -0.06201,-0.0345 -0.151586,-0.0517 -0.268717,-0.0517 z m 0,-0.966352 h 0.692465 c 0.220486,0 0.409966,-0.02928 0.56844,-0.08785 0.161919,-0.05857 0.294556,-0.139526 0.397909,-0.242879 0.103353,-0.103353 0.179145,-0.225654 0.227376,-0.366903 0.05167,-0.144694 0.07751,-0.301446 0.07751,-0.470256 0,-0.334174 -0.103353,-0.590833 -0.310059,-0.769978 -0.206705,-0.182591 -0.523654,-0.273886 -0.950846,-0.273886 h -0.7028 z m -5.663737,1.224732 v 2.38228 h -1.35909 v -6.862627 h 2.206584 c 0.444417,0 0.826823,0.05512 1.147217,0.165364 0.320393,0.110243 0.585666,0.26355 0.795817,0.45992 0.210151,0.192925 0.36518,0.423747 0.465087,0.692465 0.09991,0.268717 0.149862,0.563273 0.149862,0.883667 0,0.337619 -0.0534,0.645955 -0.160197,0.925008 -0.103353,0.279055 -0.261827,0.518493 -0.475423,0.718303 -0.210151,0.19981 -0.475423,0.35656 -0.795817,0.47025 -0.320394,0.11025 -0.695909,0.16537 -1.126546,0.16537 z m 0,-1.0542 h 0.847494 c 0.413411,0 0.71658,-0.108521 0.909505,-0.325562 0.192925,-0.220486 0.289388,-0.520209 0.289388,-0.899169 0,-0.354845 -0.09819,-0.635621 -0.294556,-0.842326 -0.19637,-0.210151 -0.497816,-0.315227 -0.904337,-0.315227 h -0.847494 z" />
        <path
           d="m 52.565807,86.953709 q -0.05168,0.103353 -0.124023,0.149861 -0.06718,0.04134 -0.170532,0.04134 -0.09819,0 -0.211874,-0.07235 -0.113688,-0.07235 -0.268717,-0.15503 -0.149862,-0.08785 -0.3514,-0.160197 -0.201538,-0.07235 -0.465088,-0.07235 -0.465088,0 -0.702799,0.227377 -0.232544,0.227376 -0.232544,0.594279 0,0.232544 0.124023,0.387573 0.129191,0.149861 0.335897,0.26355 0.211873,0.10852 0.475423,0.19637 0.268718,0.08785 0.54777,0.191203 0.279053,0.09819 0.542603,0.237711 0.268717,0.134359 0.475423,0.341065 0.211873,0.206705 0.335897,0.506425 0.129191,0.29973 0.129191,0.72864 0,0.46509 -0.155029,0.87333 -0.149862,0.40825 -0.444418,0.71314 -0.294555,0.29972 -0.72347,0.47542 -0.423746,0.1757 -0.971517,0.1757 -0.310058,0 -0.620117,-0.0672 -0.304891,-0.062 -0.589111,-0.18087 -0.28422,-0.11885 -0.537435,-0.28422 -0.253214,-0.16536 -0.444417,-0.37207 l 0.403076,-0.64595 q 0.04651,-0.0775 0.124023,-0.12403 0.08268,-0.0465 0.1757,-0.0465 0.124024,0 0.253215,0.0982 0.134358,0.093 0.310058,0.21187 0.1757,0.11369 0.408244,0.21188 0.232544,0.093 0.552938,0.093 0.465088,0 0.72347,-0.23771 0.258382,-0.23771 0.258382,-0.7028 0,-0.26355 -0.129191,-0.42891 -0.124023,-0.16537 -0.330729,-0.27389 -0.206706,-0.11369 -0.475423,-0.1912 -0.26355,-0.0827 -0.542603,-0.1757 -0.273885,-0.093 -0.542602,-0.22221 -0.26355,-0.134355 -0.470256,-0.351396 -0.206706,-0.217041 -0.335897,-0.537435 -0.124023,-0.320394 -0.124023,-0.795817 0,-0.377238 0.144694,-0.733805 0.144694,-0.361735 0.423747,-0.640788 0.279052,-0.279053 0.682129,-0.444417 0.408243,-0.170533 0.930175,-0.170533 0.589112,0 1.090373,0.191203 0.506429,0.191203 0.862996,0.537435 z"
           style="font-style:normal;font-variant:normal;font-weight:bold;font-stretch:normal;font-size:10.58329964px;line-height:125%;font-family:Carlito;-inkscape-font-specification:'Carlito, Bold';font-variant-ligatures:normal;font-variant-caps:normal;font-variant-numeric:normal;font-feature-settings:normal;text-align:start;letter-spacing:0px;word-spacing:0px;writing-mode:lr-tb;text-anchor:start;fill:#3255a4;fill-opacity:1;stroke:none;stroke-width:0.26458299px;stroke-linecap:butt;stroke-linejoin:miter;stroke-opacity:1"
           id="path46" />
        <g
           id="g1382"
           transform="translate(1.1789199,-0.047466)">
          <path
             style="fill:#3255a4;fill-opacity:1;stroke-width:0.26458299"
             d="m 56.258333,86.801915 h -0.465762 l 1.071728,-1.0969 1.071729,1.0969 h -0.462285 v 5.76572 h -1.21541 z"
             id="path1375" />
          <path
             style="fill:#3255a4;fill-opacity:1;stroke-width:0.26458299"
             d="m 52.994414,88.604618 -0.403362,-0.232881 0.379694,1.485807 1.476594,-0.414078 -0.40035,-0.231143 1.254185,-2.172312 -1.052576,-0.607705 z"
             id="rect1339-4" />
          <path
             style="fill:none;stroke:#3255a4;stroke-width:0.465;stroke-linecap:butt;stroke-linejoin:miter;stroke-miterlimit:4;stroke-dasharray:none;stroke-opacity:1"
             d="m 56.864299,85.999429 c 0,0 0.09457,-0.48175 -0.208804,-0.641156 -0.150194,-0.07892 -0.382614,-0.06334 -0.486945,-0.02725 -0.768322,0.265764 -1.437249,1.492606 -1.437249,1.492606 l -1.664505,2.841817 c 0,0 -0.232531,0.22901 -0.209264,0.368271 0.02068,0.123774 0.282294,0.157202 0.282294,0.157202 h 4.635346"
             id="path1377" />
        </g>
      </g>
    </g>
  </g>
</svg>
